<svg xmlns="http://www.w3.org/2000/svg" version="1.1" xmlns:xlink="http://www.w3.org/1999/xlink" xmlns:svgjs="http://svgjs.dev/svgjs" viewBox="0 0 800 800"><defs><linearGradient x1="50%" y1="0%" x2="50%" y2="100%" id="ffflurry-grad" gradientTransform="rotate(270)"><stop stop-color="hsl(238, 82%, 13%)" stop-opacity="1" offset="0%"></stop><stop stop-color="hsl(290, 87%, 47%)" stop-opacity="1" offset="45%"></stop><stop stop-color="hsl(167, 52%, 78%)" stop-opacity="1" offset="100%"></stop></linearGradient></defs><rect width="100%" height="100%" fill="hsl(238, 82%, 13%)"></rect><g fill="url(#ffflurry-grad)"><rect width="454" height="3" x="-87" y="200.5" rx="1.5" transform="rotate(45, 140, 202)" opacity="0.59"></rect><rect width="75" height="3" x="584.5" y="325.5" rx="1.5" transform="rotate(45, 622, 327)" opacity="0.52"></rect><rect width="412" height="3" x="-32" y="525.5" rx="1.5" transform="rotate(45, 174, 527)" opacity="0.77"></rect><rect width="542" height="3" x="-79" y="106.5" rx="1.5" transform="rotate(45, 192, 108)" opacity="0.68"></rect><rect width="535" height="3" x="-71.5" y="608.5" rx="1.5" transform="rotate(45, 196, 610)" opacity="0.72"></rect><rect width="191" height="3" x="528.5" y="402.5" rx="1.5" transform="rotate(45, 624, 404)" opacity="0.39"></rect><rect width="399" height="3" x="-96.5" y="97.5" rx="1.5" transform="rotate(45, 103, 99)" opacity="0.17"></rect><rect width="335" height="3" x="437.5" y="541.5" rx="1.5" transform="rotate(45, 605, 543)" opacity="0.94"></rect><rect width="45" height="3" x="92.5" y="668.5" rx="1.5" transform="rotate(45, 115, 670)" opacity="0.58"></rect><rect width="316" height="3" x="5" y="30.5" rx="1.5" transform="rotate(45, 163, 32)" opacity="0.35"></rect><rect width="286" height="3" x="-83" y="24.5" rx="1.5" transform="rotate(45, 60, 26)" opacity="0.58"></rect><rect width="148" height="3" x="362" y="588.5" rx="1.5" transform="rotate(45, 436, 590)" opacity="0.67"></rect><rect width="395" height="3" x="569.5" y="192.5" rx="1.5" transform="rotate(45, 767, 194)" opacity="0.27"></rect><rect width="192" height="3" x="253" y="322.5" rx="1.5" transform="rotate(45, 349, 324)" opacity="0.87"></rect><rect width="504" height="3" x="481" y="257.5" rx="1.5" transform="rotate(45, 733, 259)" opacity="0.32"></rect><rect width="329" height="3" x="595.5" y="749.5" rx="1.5" transform="rotate(45, 760, 751)" opacity="0.77"></rect><rect width="285" height="3" x="594.5" y="335.5" rx="1.5" transform="rotate(45, 737, 337)" opacity="0.25"></rect><rect width="428" height="3" x="-182" y="174.5" rx="1.5" transform="rotate(45, 32, 176)" opacity="0.98"></rect><rect width="683" height="3" x="140.5" y="344.5" rx="1.5" transform="rotate(45, 482, 346)" opacity="0.67"></rect><rect width="469" height="3" x="62.5" y="517.5" rx="1.5" transform="rotate(45, 297, 519)" opacity="0.70"></rect><rect width="442" height="3" x="-148" y="508.5" rx="1.5" transform="rotate(45, 73, 510)" opacity="0.88"></rect><rect width="350" height="3" x="506" y="340.5" rx="1.5" transform="rotate(45, 681, 342)" opacity="0.77"></rect><rect width="503" height="3" x="117.5" y="215.5" rx="1.5" transform="rotate(45, 369, 217)" opacity="0.72"></rect><rect width="510" height="3" x="432" y="732.5" rx="1.5" transform="rotate(45, 687, 734)" opacity="0.71"></rect><rect width="494" height="3" x="-93" y="441.5" rx="1.5" transform="rotate(45, 154, 443)" opacity="0.74"></rect><rect width="407" height="3" x="171.5" y="523.5" rx="1.5" transform="rotate(45, 375, 525)" opacity="0.52"></rect><rect width="450" height="3" x="440" y="615.5" rx="1.5" transform="rotate(45, 665, 617)" opacity="0.37"></rect><rect width="381" height="3" x="-71.5" y="368.5" rx="1.5" transform="rotate(45, 119, 370)" opacity="0.85"></rect><rect width="412" height="3" x="-176" y="78.5" rx="1.5" transform="rotate(45, 30, 80)" opacity="0.40"></rect><rect width="308" height="3" x="262" y="676.5" rx="1.5" transform="rotate(45, 416, 678)" opacity="0.71"></rect><rect width="249" height="3" x="120.5" y="251.5" rx="1.5" transform="rotate(45, 245, 253)" opacity="0.28"></rect><rect width="626" height="3" x="-54" y="170.5" rx="1.5" transform="rotate(45, 259, 172)" opacity="0.90"></rect><rect width="285" height="3" x="36.5" y="731.5" rx="1.5" transform="rotate(45, 179, 733)" opacity="0.42"></rect><rect width="168" height="3" x="157" y="361.5" rx="1.5" transform="rotate(45, 241, 363)" opacity="0.09"></rect><rect width="530" height="3" x="-231" y="370.5" rx="1.5" transform="rotate(45, 34, 372)" opacity="0.61"></rect><rect width="51" height="3" x="48.5" y="769.5" rx="1.5" transform="rotate(45, 74, 771)" opacity="0.33"></rect><rect width="604" height="3" x="55" y="751.5" rx="1.5" transform="rotate(45, 357, 753)" opacity="0.54"></rect><rect width="267" height="3" x="203.5" y="52.5" rx="1.5" transform="rotate(45, 337, 54)" opacity="0.64"></rect><rect width="173" height="3" x="366.5" y="768.5" rx="1.5" transform="rotate(45, 453, 770)" opacity="0.89"></rect><rect width="40" height="3" x="472" y="713.5" rx="1.5" transform="rotate(45, 492, 715)" opacity="0.94"></rect><rect width="307" height="3" x="408.5" y="763.5" rx="1.5" transform="rotate(45, 562, 765)" opacity="0.64"></rect><rect width="209" height="3" x="-59.5" y="446.5" rx="1.5" transform="rotate(45, 45, 448)" opacity="0.72"></rect><rect width="642" height="3" x="80" y="403.5" rx="1.5" transform="rotate(45, 401, 405)" opacity="0.98"></rect><rect width="693" height="3" x="-39.5" y="646.5" rx="1.5" transform="rotate(45, 307, 648)" opacity="0.51"></rect><rect width="98" height="3" x="493" y="48.5" rx="1.5" transform="rotate(45, 542, 50)" opacity="0.24"></rect><rect width="90" height="3" x="692" y="420.5" rx="1.5" transform="rotate(45, 737, 422)" opacity="0.82"></rect><rect width="347" height="3" x="572.5" y="26.5" rx="1.5" transform="rotate(45, 746, 28)" opacity="0.21"></rect><rect width="100" height="3" x="207" y="450.5" rx="1.5" transform="rotate(45, 257, 452)" opacity="0.19"></rect><rect width="244" height="3" x="349" y="141.5" rx="1.5" transform="rotate(45, 471, 143)" opacity="0.81"></rect><rect width="184" height="3" x="667" y="629.5" rx="1.5" transform="rotate(45, 759, 631)" opacity="0.86"></rect><rect width="470" height="3" x="-59" y="288.5" rx="1.5" transform="rotate(45, 176, 290)" opacity="0.78"></rect><rect width="107" height="3" x="726.5" y="368.5" rx="1.5" transform="rotate(45, 780, 370)" opacity="0.45"></rect><rect width="278" height="3" x="615" y="519.5" rx="1.5" transform="rotate(45, 754, 521)" opacity="0.48"></rect><rect width="439" height="3" x="437.5" y="502.5" rx="1.5" transform="rotate(45, 657, 504)" opacity="0.56"></rect><rect width="535" height="3" x="204.5" y="479.5" rx="1.5" transform="rotate(45, 472, 481)" opacity="0.77"></rect><rect width="154" height="3" x="-22" y="574.5" rx="1.5" transform="rotate(45, 55, 576)" opacity="0.11"></rect><rect width="362" height="3" x="-79" y="159.5" rx="1.5" transform="rotate(45, 102, 161)" opacity="0.10"></rect><rect width="347" height="3" x="-69.5" y="273.5" rx="1.5" transform="rotate(45, 104, 275)" opacity="0.07"></rect><rect width="68" height="3" x="600" y="244.5" rx="1.5" transform="rotate(45, 634, 246)" opacity="0.16"></rect><rect width="228" height="3" x="497" y="703.5" rx="1.5" transform="rotate(45, 611, 705)" opacity="0.11"></rect><rect width="217" height="3" x="156.5" y="59.5" rx="1.5" transform="rotate(45, 265, 61)" opacity="0.68"></rect><rect width="381" height="3" x="247.5" y="34.5" rx="1.5" transform="rotate(45, 438, 36)" opacity="0.77"></rect><rect width="259" height="3" x="408.5" y="566.5" rx="1.5" transform="rotate(45, 538, 568)" opacity="0.11"></rect><rect width="358" height="3" x="208" y="114.5" rx="1.5" transform="rotate(45, 387, 116)" opacity="0.49"></rect><rect width="739" height="3" x="130.5" y="239.5" rx="1.5" transform="rotate(45, 500, 241)" opacity="0.72"></rect><rect width="223" height="3" x="-77.5" y="647.5" rx="1.5" transform="rotate(45, 34, 649)" opacity="0.37"></rect><rect width="317" height="3" x="487.5" y="49.5" rx="1.5" transform="rotate(45, 646, 51)" opacity="0.10"></rect><rect width="92" height="3" x="213" y="753.5" rx="1.5" transform="rotate(45, 259, 755)" opacity="0.28"></rect><rect width="134" height="3" x="-31" y="720.5" rx="1.5" transform="rotate(45, 36, 722)" opacity="0.53"></rect><rect width="239" height="3" x="410.5" y="647.5" rx="1.5" transform="rotate(45, 530, 649)" opacity="0.21"></rect><rect width="81" height="3" x="515.5" y="441.5" rx="1.5" transform="rotate(45, 556, 443)" opacity="0.84"></rect><rect width="408" height="3" x="555" y="94.5" rx="1.5" transform="rotate(45, 759, 96)" opacity="0.79"></rect><rect width="376" height="3" x="372" y="320.5" rx="1.5" transform="rotate(45, 560, 322)" opacity="0.77"></rect><rect width="368" height="3" x="-147" y="281.5" rx="1.5" transform="rotate(45, 37, 283)" opacity="0.74"></rect><rect width="148" height="3" x="616" y="451.5" rx="1.5" transform="rotate(45, 690, 453)" opacity="0.55"></rect><rect width="235" height="3" x="568.5" y="146.5" rx="1.5" transform="rotate(45, 686, 148)" opacity="0.64"></rect><rect width="606" height="3" x="278" y="151.5" rx="1.5" transform="rotate(45, 581, 153)" opacity="0.66"></rect></g></svg>